<svg width="302" height="302" viewBox="0 0 302 302" fill="none" xmlns="http://www.w3.org/2000/svg">
<rect x="0.192139" y="0.762695" width="300.993" height="300.993" rx="80" fill="url(#paint0_linear_43_275)"/>
<path d="M213.829 93.1396C223.402 93.1396 231.162 100.9 231.162 110.473V175.208C231.162 184.781 223.402 192.541 213.829 192.541H147.113V142.163H164.431L174.033 121.666H109.298L99.6956 142.163H126.615V192.554L100.392 224.534V192.541H88.4963C78.9234 192.541 71.1624 184.781 71.1624 175.208V110.473C71.1625 100.9 78.9235 93.1396 88.4963 93.1396H213.829ZM161.84 168.964C158.011 168.964 154.907 172.067 154.906 175.896C154.906 179.726 158.011 182.83 161.84 182.83C165.669 182.83 168.773 179.726 168.773 175.896C168.773 172.068 165.669 168.964 161.84 168.964ZM178.768 168.964C174.939 168.964 171.835 172.068 171.835 175.896C171.835 179.726 174.939 182.83 178.768 182.83C182.597 182.83 185.701 179.726 185.701 175.896C185.701 172.067 182.597 168.964 178.768 168.964ZM195.697 168.964C191.868 168.964 188.763 172.068 188.763 175.896C188.763 179.726 191.867 182.83 195.697 182.83C199.526 182.83 202.63 179.726 202.63 175.896C202.63 172.067 199.526 168.964 195.697 168.964Z" fill="white"/>
<defs>
<linearGradient id="paint0_linear_43_275" x1="221.243" y1="107.023" x2="-135.484" y2="463.749" gradientUnits="userSpaceOnUse">
<stop stop-color="#0B84AE"/>
<stop offset="1" stop-color="#87B613"/>
</linearGradient>
</defs>
</svg>
